<svg width="300" height="100" viewBox="0 0 300 100" fill="none" xmlns="http://www.w3.org/2000/svg">
<path d="M74.5597 18C68.5787 18 62.503 20.6597 54.7171 26.6407V19.52H40V76.4801H55.6667V41.0692C62.5027 35.6582 65.6337 33.9481 68.1985 33.9481C71.2347 33.9481 73.2298 35.8479 73.2298 40.5939V76.4801H88.8927V40.9741C95.7286 35.6581 98.7687 33.9481 101.425 33.9481C104.465 33.9481 106.456 35.8479 106.456 40.5939V76.4801H122.119V35.0882C122.119 22.2713 114.808 18 107.782 18C101.801 18 95.7249 20.4697 87.7491 26.5456C85.1916 20.181 79.5907 18 74.5597 18ZM153.928 18C138.36 18 125.448 31.3868 125.448 47.9998C125.448 64.6128 138.36 78 153.928 78C161.619 78 168.265 75.1542 173.395 68.9796V76.4801H188.301V19.52H173.395V27.0204C168.265 20.8458 161.619 18 153.928 18ZM191.052 19.52C197.508 29.5814 204.818 38.6015 213.364 47.6217C204.818 57.0182 197.508 66.7986 191.052 76.4801H209.944C214.405 69.2646 219.436 62.7138 225.23 56.5433C230.926 62.7138 235.671 69.2646 240.135 76.4801H259.217C252.667 66.5136 245.546 57.0182 237.001 47.6217C245.451 38.6015 252.667 29.3001 259.217 19.52H240.516C235.865 26.7354 230.834 32.8108 225.23 38.7914C219.534 32.8108 214.503 26.7354 209.944 19.52H191.052ZM156.299 31.1971C165.601 31.1971 173.102 38.6977 173.102 47.9998C173.102 57.3019 165.601 64.8029 156.299 64.8029C146.997 64.8029 139.496 57.3055 139.496 47.9998C139.496 38.694 146.997 31.1971 156.299 31.1971ZM156.299 34.9932C149.178 34.9932 143.387 40.7839 143.387 47.9998C143.387 55.2157 149.178 61.0068 156.299 61.0068C163.42 61.0068 169.211 55.2157 169.211 47.9998C169.211 40.7839 163.42 34.9932 156.299 34.9932Z" fill="#002BE7"/>
</svg>
