<svg xmlns="http://www.w3.org/2000/svg" xmlns:xlink="http://www.w3.org/1999/xlink" viewBox="0,0,255.99057,255.99057" width="50px" height="50px"><g fill="#ffffff" fill-rule="nonzero" stroke="none" stroke-width="1" stroke-linecap="butt" stroke-linejoin="miter" stroke-miterlimit="10" stroke-dasharray="" stroke-dashoffset="0" font-family="none" font-weight="none" font-size="none" text-anchor="none" style="mix-blend-mode: normal"><g transform="scale(5.12,5.12)"><path d="M0,19l0.26563,0.72656l1.73438,0.27344v8c-0.5,0.10156 -1.28125,0.24219 -1.78125,0.34375l-0.21875,0.65625h6l-0.19922,-0.69922l-1.80078,-0.30078v-8c0.5,0 1.40234,0.14844 1.80078,0.34766c0.60156,0.30078 1,0.90234 1,1.70313c0,1.5 -1.17578,2.08984 -2.40234,2.26563v0.69922c2.13281,0 4.60156,-1.36719 4.60156,-3.76562c0,-0.39844 -0.19922,-1.30078 -1.39844,-1.80078c-0.70312,-0.30078 -2.20312,-0.44922 -3.60156,-0.44922zM10,19l0.21875,0.65625c0.5,0.10156 1.28125,0.24219 1.78125,0.34375v8c-0.5,0.10156 -1.28125,0.24219 -1.78125,0.34375l-0.21875,0.65625h6l-0.19922,-0.69922l-1.80078,-0.30078v-8l1.80078,-0.30078l0.19922,-0.69922zM17,19l0.21875,0.65625c0.33203,0.06641 0.78516,0.15234 1.20313,0.23047l-0.01953,0.01563c0,0 0.89844,0.99609 1.5,1.79688c0.59766,0.80078 1.19531,1.60156 1.69531,2.20313c-0.59766,0.79688 -2.89844,3.79688 -3.5,4.19531c-0.03125,0.03516 -0.04687,0.0625 -0.07812,0.08984c-0.28906,0.05859 -0.57422,0.10938 -0.80078,0.15625l-0.21875,0.65625h5l-0.19922,-0.69922c-0.59766,-0.10156 -1.19531,-0.19922 -1.79687,-0.30078c0.54688,-1.03125 1.625,-2.73828 2.09375,-3.30078c0.40234,0.39844 1.00391,1.19922 1.70313,2c0.89844,1 2,2.5 3.19922,3.30078h1l-4.59766,-6.80078c0,0 0.89844,-1.09766 1.5,-1.79687c0.39844,-0.5 0.79688,-1.00391 1.29688,-1.40234l0.03125,-0.03516c0.52344,-0.08984 1.04688,-0.17578 1.57031,-0.26562l0.19922,-0.69922h-5l0.21875,0.65625c0.33984,0.06641 0.80469,0.15625 1.22656,0.23438c-0.42187,0.71875 -1.26562,1.93359 -1.74609,2.51172c-0.375,-0.5625 -1.60937,-2.32812 -1.76562,-2.55859c0.28906,-0.04687 0.57813,-0.09766 0.86719,-0.14453l0.19922,-0.69922zM31,19l0.21875,0.65625c0.42188,0.08594 1.03906,0.19922 1.52344,0.29297c-0.58203,1.52344 -2.63281,7.01563 -3.13281,8.12891c-0.46094,0.08594 -1.00781,0.1875 -1.39062,0.26563l-0.21875,0.65625h5l-0.19922,-0.69922c-0.43359,-0.07031 -0.86328,-0.14453 -1.29687,-0.21875c0.17188,-0.85547 0.55859,-2.35547 0.79297,-3.08203h3.09375c0.40625,1.02734 0.76172,2.05469 1.10547,3.08203c-0.43359,0.07422 -0.86328,0.14844 -1.29687,0.21875l-0.19922,0.69922h5l-0.21875,-0.65625c-0.26562,-0.05469 -0.61328,-0.11719 -0.95703,-0.18359c-0.01172,-0.01953 -0.01172,-0.03906 -0.02734,-0.05859c-0.59766,-1.19922 -1.39844,-3.39844 -1.79687,-4.39844c-0.49609,-1.28906 -1.08594,-3.05859 -1.39062,-3.87109c0.47656,-0.04297 0.92969,-0.08594 1.1875,-0.12891l0.20313,-0.70312zM40,19l0.26563,0.72656l1.73438,0.27344v8l-1,0.34375l-0.21875,0.65625h5.21875l-0.19922,-0.69922l-1.80078,-0.30078v-3h0.64063c0.73047,1.02734 2.09375,2.68359 4.16016,4.19922l1.19922,-0.19922c-0.98828,-1.07031 -2.31641,-2.88672 -3.3125,-4.39062c1,-0.23437 2.34375,-0.85937 2.3125,-2.60937c-0.01562,-0.9375 -0.1875,-3 -5,-3zM44,20c0.5,0 1.40234,0.14844 1.80078,0.34766c0.60156,0.30078 1,0.90234 1,1.70313c0,0.82813 -0.36719,1.37109 -0.89453,1.73047c-0.33594,0.13281 -0.71484,0.19531 -1.05078,0.21875h-0.85547zM33.80078,20.5c0.30078,0.89844 0.89844,2.69922 1.19922,3.5h-2.37109c0.32813,-1.00391 0.86719,-2.65625 1.17188,-3.5z"></path></g></g></svg>